<svg xmlns="http://www.w3.org/2000/svg" viewBox="0 0 342.92 115.62"><title>@tienda.musa-light</title><path d="M336,53.76c.6.33,1.08.82,1.58.84,2.78.15,3.27,2,3.28,4.23.05,6-.13,12,.15,18,.14,2.87,1.12,5.71,1.7,8.57.31,1.55.44,3-1,4.25a20.36,20.36,0,0,1-10.15,5,8.8,8.8,0,0,1-9.68-5.82c-1.17-3.79-1.82-7.74-2.82-12.17-1,1.19-2.07,2.46-3.18,3.65-4.2,4.47-8.51,8.74-13.86,12a16,16,0,0,1-23.37-8.8c-1.72-5.58-.9-10.89,1-16.34a47.94,47.94,0,0,1,9.16-15.89,49.71,49.71,0,0,1,19.45-14.24c6.17-2.4,12.62-3.21,19.21-.58,3.3,1.32,6.28,2.59,8.54,5.57C339,46,337.86,49.66,336,53.76Zm-14.35,9.05c-1.48.11-3,.32-4.43.29a22.94,22.94,0,0,1-3.36-.51,9.54,9.54,0,0,1,.66-2.91,18,18,0,0,0,2.2-12.35A6.22,6.22,0,0,0,314.66,44a2.74,2.74,0,0,0-2.62.43A45.52,45.52,0,0,0,306,52a68.07,68.07,0,0,0-5.76,12.48A11.59,11.59,0,0,0,302,75.24c1.2,1.59,3,2.19,4.59,1.23A56.06,56.06,0,0,0,321.66,62.81Z" transform="translate(0)" style="fill:#eee"/><path d="M254.64,32.8a14.84,14.84,0,0,1,13.06,4.45c6,6,5.62,13.24-.24,19.59-2.5,2.72-5.34,5-9.34,5-3.63-.07-4.85-2.39-3.88-5.89,1.25-4.54,1.62-9.24-.45-13.72-.61-1.33-1.5-1.93-3.09-.66-4.15,3.34-5.9,7.92-6.7,12.86-.67,4.1,2.66,7.31,7,8.45a114.15,114.15,0,0,1,16.08,5.29c2.91,1.24,4.63,4,4.87,7.61.51,7.68-3.81,12.62-9,17.19-4.5,4-9.48,7.29-15.35,8.65-5.1,1.18-10.34,2.46-15.6.44-1.88-.72-4-1-5.66-2-5.3-3.2-6.61-7.74-3.58-13,3.25-5.64,8.23-8.92,14.89-9.1,3.1-.08,3.4.64,2.38,3.47a28.11,28.11,0,0,0-2,7.7,6,6,0,0,0,2.17,4.57c1.45,1,3.26-.13,4.8-1.32A11.44,11.44,0,0,0,249.53,85a5.69,5.69,0,0,0-2.72-6.08,91.37,91.37,0,0,0-9.34-4c-4.83-1.81-9.88-3.21-13.13-7.7-1.81-2.49-2.16-5.1-1.86-8.25.92-9.58,7-15.5,14.11-20.52C241.84,34.77,247.69,32.18,254.64,32.8Z" transform="translate(0)" style="fill:#eee"/><path d="M173.37,68.15c4-1.13,6-3.46,8-5.76a124,124,0,0,1,19.71-18.46A15.63,15.63,0,0,1,207.43,41a5.31,5.31,0,0,1,4.36,1.79,11.75,11.75,0,0,1,2.05,6.11c.2,8.65,0,17.32.09,26a94,94,0,0,0,.93,9.59c.26,2.31-.33,3.66-2.76,4.69-6.1,2.59-11.89,2.43-17.14-1.49a13.31,13.31,0,0,1-4.05-6.31c-1-3-1.09-6.22-1.64-9.8-1.83,1.35-3.6,2.81-5.51,4.05-6.55,4.28-13,8.64-19.76,12.66-4.63,2.78-9.21,2-11.52-1.7-2.08-3.39-3.2-7.17-2-11.29.33-1.17.15-2.49.38-3.71.9-4.9,1.62-9.87,2.89-14.68,1.41-5.39,3.2-10.7,5.1-15.94,1.62-4.46,4.18-8.49,8.62-10.56,5-2.3,12.59-2.07,14.74,4.27a14.61,14.61,0,0,1,.18,8.68c-2.14,6.44-5.13,12.59-7.64,18.92A43.15,43.15,0,0,0,173.37,68.15Z" transform="translate(0)" style="fill:#eee"/><path d="M103,38.15c-1.32,2.25-2.72,4.47-3.95,6.77-3.94,7.39-7.8,14.81-11.73,22.2-2.77,5.23-5.62,10.42-8.39,15.66a7.78,7.78,0,0,1-12.19,2.28c-4.22-3.54-6.86-8.12-8.9-13.06a81.38,81.38,0,0,1-6.12-23.12c-.51-5.07-1.3-10.12-2-15.18A8.81,8.81,0,0,0,49,31.81c-.55.49-1.33.88-1.63,1.49-2.21,4.52-4.23,9.14-6.5,13.63-4.93,9.75-9.08,20-16,28.57C19.58,82,12.77,85.93,4.16,85.77a7,7,0,0,1-4.11-2c-.29-.27.81-2.32,1.53-3.39C6.61,72.89,12,65.67,16.7,58c6.11-10,11.74-20.21,17.46-30.4C37.4,21.84,40.44,16,43.43,10.05c.34-.66-.06-1.85-.42-2.67a7.5,7.5,0,0,0-1.6-1.85c-2.11-2.19-1.9-3.05,1.17-3.78S48.84-.09,51.94,0A36,36,0,0,1,62.47,2.22c4.54,1.58,6,5.93,7.32,10,1.48,4.66,2.59,9.45,3.72,14.21.61,2.55.85,5.19,1.39,7.76q1.83,8.61,3.84,17.19A11.41,11.41,0,0,0,80.23,54c3.6-7.45,6.88-14.67,10.54-21.69q6.35-12.15,13.29-24a10.2,10.2,0,0,1,7.71-4.58c3.67-.48,7.38-.75,11.08-1,5.71-.36,5.94,3.23,5.79,7.59-.25,7-.07,14,0,21.06,0,.83.12,1.66.21,2.48.7,6.07.81,12.27,2.24,18.15,2,8.26,5.08,16.22,11.6,22.32,3.16,3,3,3.75.29,7.25a16.71,16.71,0,0,1-18.65,5.44c-8.29-2.93-13.48-8.77-16.61-16.82a51.77,51.77,0,0,1-3-15.15c-.41-5.53-.84-11.07-1.26-16.6Z" transform="translate(0)" style="fill:#eee"/><path d="M2.16,95.9H9.31c3.76,0,6,2,6,5.11a4.82,4.82,0,0,1-3.83,4.86L15.78,112H12.45l-4-5.6H5V112H2.16Zm7,7.95c2,0,3.3-1,3.3-2.72s-1.24-2.66-3.33-2.66H5v5.38Z" transform="translate(0)" style="fill:#eee"/><path d="M17.52,105.92A6.33,6.33,0,0,1,24,99.59a6.32,6.32,0,1,1,0,12.63A6.27,6.27,0,0,1,17.52,105.92Zm10.13,0a3.74,3.74,0,0,0-3.71-3.9,3.65,3.65,0,0,0-3.65,3.9,3.76,3.76,0,0,0,3.7,3.9A3.66,3.66,0,0,0,27.65,105.92Z" transform="translate(0)" style="fill:#eee"/><path d="M33.25,99.84H36v2a4.85,4.85,0,0,1,4.11-2.27c2.86,0,5.64,2.27,5.64,6.33S43,112.2,40.13,112.2A5,5,0,0,1,36,110.07v5.55H33.25Zm9.7,6A3.59,3.59,0,0,0,39.48,102a3.91,3.91,0,0,0,0,7.79C41.39,109.79,43,108.3,43,105.87Z" transform="translate(0)" style="fill:#eee"/><path d="M56,112v-1.49a4.89,4.89,0,0,1-3.92,1.74c-2.29,0-4.31-1.31-4.31-3.78,0-2.69,2.09-4,4.91-4A10.13,10.13,0,0,1,56,105v-.23c0-1.68-1.06-2.59-3-2.59a8.36,8.36,0,0,0-3.46.75l-.76-2.22a10.31,10.31,0,0,1,4.61-1c3.57,0,5.32,1.88,5.32,5.11V112Zm.07-5.07a8,8,0,0,0-2.77-.48c-1.74,0-2.78.71-2.78,1.93s1,1.78,2.34,1.78c1.84,0,3.21-1,3.21-2.54Z" transform="translate(0)" style="fill:#eee"/><path d="M78.25,110.09a7,7,0,0,1-4.93,2.09c-3,0-5.22-1.81-5.22-4.63,0-2.07,1.21-3.56,3.41-4.5a5.22,5.22,0,0,1-1.33-3.39c0-2.16,1.74-4,4.61-4a4,4,0,0,1,4.27,3.92c0,2.11-1.4,3.37-3.54,4.18l2.76,2.79A23.07,23.07,0,0,0,80,103.42l2.13,1.12A25.19,25.19,0,0,1,80,108.21l2.52,2.57-2.08,1.49Zm-1.6-1.65-3.58-3.65a3,3,0,0,0-2.13,2.71,2.44,2.44,0,0,0,2.68,2.34A4.45,4.45,0,0,0,76.65,108.44Zm-.09-8.78a1.74,1.74,0,0,0-1.84-1.81,1.84,1.84,0,0,0-1.9,2A3.39,3.39,0,0,0,74,102.2C75.69,101.61,76.56,100.85,76.56,99.66Z" transform="translate(0)" style="fill:#eee"/><path d="M97.79,95.78h2.61L107.46,112h-3l-1.63-3.88H95.26L93.61,112H90.72Zm4,9.79-2.77-6.42-2.75,6.42Z" transform="translate(0)" style="fill:#eee"/><path d="M108.65,105.92a6.24,6.24,0,0,1,6.28-6.33,6,6,0,0,1,4.84,2.09l-1.72,1.85a4.08,4.08,0,0,0-3.14-1.51,3.64,3.64,0,0,0-3.48,3.9,3.69,3.69,0,0,0,3.62,3.9,4.24,4.24,0,0,0,3.14-1.52l1.67,1.65a6.12,6.12,0,0,1-5,2.27A6.19,6.19,0,0,1,108.65,105.92Z" transform="translate(0)" style="fill:#eee"/><path d="M121.4,105.92a6.24,6.24,0,0,1,6.28-6.33,6,6,0,0,1,4.84,2.09l-1.72,1.85a4.08,4.08,0,0,0-3.14-1.51,3.65,3.65,0,0,0-3.49,3.9,3.69,3.69,0,0,0,3.63,3.9,4.25,4.25,0,0,0,3.14-1.52l1.67,1.65a6.12,6.12,0,0,1-5,2.27A6.19,6.19,0,0,1,121.4,105.92Z" transform="translate(0)" style="fill:#eee"/><path d="M134.15,105.89a6,6,0,0,1,5.91-6.3c3.85,0,5.8,3,5.8,6.51,0,.18,0,.64,0,.78h-8.9a3.38,3.38,0,0,0,3.49,3.07,4.37,4.37,0,0,0,3.27-1.44l1.63,1.44a6.31,6.31,0,0,1-11.16-4.06Zm9-.84c-.18-1.79-1.24-3.19-3.07-3.19s-2.89,1.31-3.14,3.19Z" transform="translate(0)" style="fill:#eee"/><path d="M147.67,110.37l1.24-1.88a6.85,6.85,0,0,0,4,1.49c1.19,0,1.88-.51,1.88-1.36s-1.17-1.21-2.5-1.6l-.21-.07c-1.79-.53-3.78-1.26-3.78-3.62s1.9-3.69,4.31-3.69A8.4,8.4,0,0,1,157,101l-1.1,2a7,7,0,0,0-3.42-1.14c-1.08,0-1.7.5-1.7,1.26s1.17,1.19,2.5,1.63l.23.06c1.77.56,3.76,1.36,3.76,3.58,0,2.55-2,3.81-4.49,3.81A8.54,8.54,0,0,1,147.67,110.37Z" transform="translate(0)" style="fill:#eee"/><path d="M159.46,105.92a6.45,6.45,0,1,1,6.42,6.3A6.33,6.33,0,0,1,159.46,105.92Zm10.13,0a3.75,3.75,0,0,0-3.71-3.9,3.65,3.65,0,0,0-3.65,3.9,3.75,3.75,0,0,0,3.69,3.9A3.67,3.67,0,0,0,169.59,105.92Z" transform="translate(0)" style="fill:#eee"/><path d="M175.18,99.84H178v2.73a4.29,4.29,0,0,1,4.29-3v2.94h-.17c-2.43,0-4.12,1.58-4.12,4.79V112h-2.78Z" transform="translate(0)" style="fill:#eee"/><path d="M184.7,95.35h3V98h-3Zm.11,4.49h2.78V112h-2.78Z" transform="translate(0)" style="fill:#eee"/><path d="M190.54,105.92a6.46,6.46,0,1,1,6.42,6.3A6.27,6.27,0,0,1,190.54,105.92Zm10.14,0A3.75,3.75,0,0,0,197,102a3.64,3.64,0,0,0-3.64,3.9,3.75,3.75,0,0,0,3.69,3.9A3.67,3.67,0,0,0,200.68,105.92Z" transform="translate(0)" style="fill:#eee"/><path d="M205.29,110.37l1.23-1.88a6.85,6.85,0,0,0,4,1.49c1.19,0,1.88-.51,1.88-1.36s-1.17-1.21-2.5-1.6l-.2-.07c-1.79-.53-3.79-1.26-3.79-3.62s1.9-3.69,4.31-3.69a8.35,8.35,0,0,1,4.45,1.37l-1.1,2a7,7,0,0,0-3.42-1.14c-1.07,0-1.69.5-1.69,1.26s1.17,1.19,2.5,1.63l.22.06c1.77.56,3.77,1.36,3.77,3.58,0,2.55-2,3.81-4.5,3.81A8.49,8.49,0,0,1,205.29,110.37Z" transform="translate(0)" style="fill:#eee"/></svg>